<?xml version="1.0" encoding="UTF-8"?>
<!DOCTYPE svg PUBLIC "-//W3C//DTD SVG 1.1//EN" "http://www.w3.org/Graphics/SVG/1.1/DTD/svg11.dtd">
<!-- Creator: CorelDRAW 2021.5 -->
<svg xmlns="http://www.w3.org/2000/svg" xml:space="preserve" width="185.267mm" height="171.583mm" version="1.1" style="shape-rendering:geometricPrecision; text-rendering:geometricPrecision; image-rendering:optimizeQuality; fill-rule:evenodd; clip-rule:evenodd"
viewBox="0 0 6656.62 6164.97"
 xmlns:xlink="http://www.w3.org/1999/xlink"
 xmlns:xodm="http://www.corel.com/coreldraw/odm/2003">
 <defs>
  <style type="text/css">
   <![CDATA[
    .fil0 {fill:white}
    .fil1 {fill:white;fill-rule:nonzero}
   ]]>
  </style>
 </defs>
 <g id="Layer_x0020_1">
  <metadata id="CorelCorpID_0Corel-Layer"/>
  <g id="_105553536654272">
   <path class="fil0" d="M5558.88 2230.58c0,1231.92 -998.66,2230.6 -2230.58,2230.6 -1231.87,0 -2230.57,-998.74 -2230.57,-2230.6 0,-1231.87 998.68,-2230.58 2230.57,-2230.58 1231.94,0 2230.58,998.66 2230.58,2230.58zm-28.72 0c0,-1216.07 -985.76,-2201.86 -2201.85,-2201.86 -1216,0 -2201.83,985.79 -2201.83,2201.86 0,1216.03 985.83,2201.86 2201.83,2201.86 1216.1,0 2201.85,-985.83 2201.85,-2201.86z"/>
   <path class="fil1" d="M2095.68 2349.62c47.26,-157.88 170.42,-283.15 327.08,-333.2 -98.76,-53.98 -165.86,-158.82 -165.86,-279.03 0,-2.99 0.38,-5.87 0.43,-8.83l-0.43 0c0,-188.63 -120.2,-349.31 -287.84,-410.67 -51.18,74.4 -97.04,152.77 -135.65,235.31 -58.39,124.16 -101.62,257.15 -127.16,395.91 -12.17,63.59 -20.11,128.7 -24.39,194.76 -1.73,25.68 -2.59,51.44 -3.11,77.33 42.46,-21.05 90.06,-33.19 140.5,-33.19 118.49,0 221.81,65.29 276.44,161.6l-0 -0z"/>
   <path class="fil1" d="M2574.63 1482.06c-140.73,0 -255.3,114.53 -255.3,255.32 0,140.76 114.57,255.3 255.3,255.3 140.78,0 255.3,-114.54 255.3,-255.3 0,-140.79 -114.52,-255.32 -255.3,-255.32z"/>
   <path class="fil1" d="M2074.52 2505.81c0,-140.76 -114.5,-255.3 -255.28,-255.3 -51.6,0 -99.67,15.52 -139.83,42.02 3.79,160.11 30.4,314.59 76.86,460.41 20.19,5.15 41.23,8.17 62.98,8.17 140.78,0 255.28,-114.55 255.28,-255.3l-0 0z"/>
   <path class="fil1" d="M3930.11 2027.19c-98.74,-53.98 -165.85,-158.77 -165.85,-279.03 0,-12.22 0.86,-24.23 2.17,-36.08 -0.61,-233.25 -184.73,-423.61 -415.32,-435.32 -7.39,0.52 -14.71,1.12 -22.24,1.12 -7.55,0 -14.92,-0.61 -22.32,-1.12 -230.94,11.72 -415.35,202.7 -415.35,436.53 0.56,7.97 1.17,15.94 1.17,24.1 0,120.21 -67.11,225.05 -165.85,279.03 156.22,49.9 279.16,174.59 326.72,331.83 54.87,-95.55 157.71,-160.23 275.61,-160.23 118.92,0 222.65,65.76 277.1,162.73 49.37,-153.31 170.71,-274.54 324.13,-323.56z"/>
   <path class="fil1" d="M3073.6 2505.81c0,140.75 114.46,255.3 255.28,255.3 140.72,0 255.3,-114.55 255.3,-255.3 0,-0.78 -0.13,-1.5 -0.15,-2.25l-2.13 0c0,-7.16 0.78,-14.1 1.1,-21.14 -11.87,-129.84 -121.27,-231.92 -254.12,-231.92 -134.61,0 -244.97,104.82 -254.38,237.06 0.04,1.76 0.26,3.47 0.26,5.22l-0.55 0c-0.23,4.34 -0.61,8.61 -0.61,13.02l0 0z"/>
   <path class="fil1" d="M4582.11 2505.81c0,140.75 114.52,255.3 255.3,255.3 21.75,0 42.76,-3.03 62.94,-8.17 46.43,-145.76 73.1,-300.21 76.95,-460.45 -40.22,-26.46 -88.23,-41.98 -139.89,-41.98 -140.78,0 -255.3,114.54 -255.3,255.3l0 -0z"/>
   <path class="fil1" d="M3145.3 3480.1l0 412.08c60.14,6.65 121.22,10.27 183.2,10.27 61.81,0 122.8,-3.58 182.86,-10.23l0 -412.12 -366.06 0 0 0z"/>
   <path class="fil1" d="M4519.63 2505.81c0,-0.78 0.13,-1.5 0.13,-2.25l-0.13 0c0,-241.35 -196.31,-437.65 -437.62,-437.65 -234.18,0 -425.44,185.02 -436.59,416.48 0.57,7.78 1.18,15.51 1.18,23.42 0,175.23 -142.5,317.75 -317.72,317.75 -175.22,0 -317.8,-142.52 -317.8,-317.75 0,-6.18 0.57,-12.18 0.93,-18.24 -2.81,-238.91 -197.82,-432.43 -437.37,-432.43 -241.31,0 -437.62,196.3 -437.62,437.65l-0.69 0c0.19,4.34 0.69,8.61 0.69,13.02 0,175.23 -142.56,317.75 -317.79,317.75 -13.5,0 -26.8,-1.12 -39.87,-2.76 18.89,51.44 39.99,101.88 63.78,150.79 74.89,154.89 173.45,296.38 290.95,419.62 206.01,215.45 469.52,375.52 766.21,454.97 59.62,16.03 120.51,28.59 182.49,37.87l0 -403.93 -75.86 0c-76.34,0 -138.38,-62.08 -138.38,-138.38 0,-76.3 62.04,-138.39 138.38,-138.39 76.32,0 138.38,62.08 138.38,138.39l0 75.88 366.06 0 0 -75.88c0,-76.3 62.12,-138.39 138.35,-138.39 76.35,0 138.38,62.08 138.38,138.39 0,76.3 -62.03,138.38 -138.38,138.38l-75.84 0 0 403.93c62.04,-9.28 122.98,-21.8 182.49,-37.87 296.36,-79.12 559.93,-238.91 765.58,-454.36 117.8,-123.2 216.42,-265.02 291.57,-419.92 23.77,-49.03 44.85,-99.56 63.78,-151.1 -13.07,1.64 -26.34,2.76 -39.87,2.76 -175.23,0 -317.78,-142.52 -317.78,-317.75l-0.01 -0z"/>
   <path class="fil1" d="M3082.78 3341.73c0,-42.56 -33.27,-75.92 -75.86,-75.92 -42.56,0 -75.94,33.36 -75.94,75.92 0,42.56 33.38,75.88 75.94,75.88l75.86 0 0 -75.88z"/>
   <path class="fil1" d="M3725.66 3341.73c0,-42.56 -33.38,-75.92 -75.95,-75.92 -42.53,0 -75.84,33.36 -75.84,75.92l0 75.88 75.84 0c42.58,0 75.95,-33.32 75.95,-75.88z"/>
   <path class="fil1" d="M3351.12 1214.3c130.34,-11.34 233.06,-120.92 233.06,-254.16 0,-140.76 -114.57,-255.3 -255.3,-255.3 -140.82,0 -255.28,114.54 -255.28,255.3 0,133.24 102.62,242.82 233,254.16 7.42,-0.31 14.73,-1.12 22.28,-1.12 7.53,0 14.81,0.82 22.24,1.12z"/>
   <path class="fil1" d="M2297.44 1582.46c54.47,-97.06 158.27,-162.86 277.2,-162.86 116.54,0 218.31,63.19 273.57,156.91 45.67,-160.02 168.84,-287.51 326.44,-338.75 -97.38,-54.32 -163.56,-158.34 -163.56,-277.62 0,-175.22 142.57,-317.75 317.8,-317.75 175.22,0 317.72,142.52 317.72,317.75 0,119.29 -66.09,223.3 -163.56,277.62 159.67,51.92 283.95,182.13 328.1,345.07 55.91,-91.23 156.24,-152.46 270.88,-152.46 117.62,0 220.34,64.41 275.2,159.64 42.72,-147.72 151.65,-267.43 292.61,-324.72 -96.03,-128.38 -209.83,-242.71 -338.41,-338.33 -253.82,-188.7 -563.92,-306.16 -900.15,-322.6 0,0 0,0 -0.32,0 -27.39,-1.52 -54.76,-2.13 -82.43,-2.13 -27.98,0 -55.39,0.61 -82.76,2.13l-0.34 0c-336.56,16.76 -646.91,134.21 -901.03,323.2 -128.24,95.46 -241.75,209.58 -337.62,337.71 138.66,56.31 246.51,172.84 290.7,317.19l-0 0z"/>
   <path class="fil1" d="M4399.75 1728.56l-0.99 0c0.41,6.52 0.99,12.96 0.99,19.6 0,120.26 -67.12,225.05 -165.85,279.03 154.18,49.29 276.15,171.44 324.95,325.88 54.14,-98.28 158.68,-165.05 278.56,-165.05 50.43,0 98.09,12.14 140.5,33.19 -0.52,-25.6 -1.39,-51.05 -3.13,-76.43 -3.97,-66.96 -12.45,-132.69 -24.63,-197.2 -25.62,-138.15 -68.47,-270.2 -126.62,-393.76 -38.71,-82.76 -84.63,-161.34 -135.99,-235.9 -167.58,61.4 -287.78,222.02 -287.78,410.65l-0.01 -0z"/>
   <path class="fil1" d="M4337.33 1748.16c0,-140.77 -114.57,-255.3 -255.32,-255.3 -140.78,0 -255.3,114.54 -255.3,255.3 0,140.74 114.52,255.28 255.3,255.28 140.74,0 255.32,-114.53 255.32,-255.28z"/>
   
  </g>
 </g>
</svg>
