<?xml version="1.0" encoding="UTF-8"?>
<!DOCTYPE svg PUBLIC "-//W3C//DTD SVG 1.1//EN" "http://www.w3.org/Graphics/SVG/1.1/DTD/svg11.dtd">
<!-- Creator: CorelDRAW 2021.5 -->
<svg xmlns="http://www.w3.org/2000/svg" xml:space="preserve" width="185.267mm" height="171.583mm" version="1.1" style="shape-rendering:geometricPrecision; text-rendering:geometricPrecision; image-rendering:optimizeQuality; fill-rule:evenodd; clip-rule:evenodd"
viewBox="0 0 6656.62 6164.97"
 xmlns:xlink="http://www.w3.org/1999/xlink"
 xmlns:xodm="http://www.corel.com/coreldraw/odm/2003">
 <defs>
  <style type="text/css">
   <![CDATA[
    .fil0 {fill:white}
    .fil1 {fill:white;fill-rule:nonzero}
   ]]>
  </style>
 </defs>
 <g id="Layer_x0020_1">
  <metadata id="CorelCorpID_0Corel-Layer"/>
  <g id="_105553536654272">
   <path class="fil0" d="M5558.88 2230.58c0,1231.92 -998.66,2230.6 -2230.58,2230.6 -1231.87,0 -2230.57,-998.74 -2230.57,-2230.6 0,-1231.87 998.68,-2230.58 2230.57,-2230.58 1231.94,0 2230.58,998.66 2230.58,2230.58zm-28.72 0c0,-1216.07 -985.76,-2201.86 -2201.85,-2201.86 -1216,0 -2201.83,985.79 -2201.83,2201.86 0,1216.03 985.83,2201.86 2201.83,2201.86 1216.1,0 2201.85,-985.83 2201.85,-2201.86z"/>
   <path class="fil1" d="M2095.68 2349.62c47.26,-157.88 170.42,-283.15 327.08,-333.2 -98.76,-53.98 -165.86,-158.82 -165.86,-279.03 0,-2.99 0.38,-5.87 0.43,-8.83l-0.43 0c0,-188.63 -120.2,-349.31 -287.84,-410.67 -51.18,74.4 -97.04,152.77 -135.65,235.31 -58.39,124.16 -101.62,257.15 -127.16,395.91 -12.17,63.59 -20.11,128.7 -24.39,194.76 -1.73,25.68 -2.59,51.44 -3.11,77.33 42.46,-21.05 90.06,-33.19 140.5,-33.19 118.49,0 221.81,65.29 276.44,161.6l-0 -0z"/>
   <path class="fil1" d="M2574.63 1482.06c-140.73,0 -255.3,114.53 -255.3,255.32 0,140.76 114.57,255.3 255.3,255.3 140.78,0 255.3,-114.54 255.3,-255.3 0,-140.79 -114.52,-255.32 -255.3,-255.32z"/>
   <path class="fil1" d="M2074.52 2505.81c0,-140.76 -114.5,-255.3 -255.28,-255.3 -51.6,0 -99.67,15.52 -139.83,42.02 3.79,160.11 30.4,314.59 76.86,460.41 20.19,5.15 41.23,8.17 62.98,8.17 140.78,0 255.28,-114.55 255.28,-255.3l-0 0z"/>
   <path class="fil1" d="M3930.11 2027.19c-98.74,-53.98 -165.85,-158.77 -165.85,-279.03 0,-12.22 0.86,-24.23 2.17,-36.08 -0.61,-233.25 -184.73,-423.61 -415.32,-435.32 -7.39,0.52 -14.71,1.12 -22.24,1.12 -7.55,0 -14.92,-0.61 -22.32,-1.12 -230.94,11.72 -415.35,202.7 -415.35,436.53 0.56,7.97 1.17,15.94 1.17,24.1 0,120.21 -67.11,225.05 -165.85,279.03 156.22,49.9 279.16,174.59 326.72,331.83 54.87,-95.55 157.71,-160.23 275.61,-160.23 118.92,0 222.65,65.76 277.1,162.73 49.37,-153.31 170.71,-274.54 324.13,-323.56z"/>
   <path class="fil1" d="M3073.6 2505.81c0,140.75 114.46,255.3 255.28,255.3 140.72,0 255.3,-114.55 255.3,-255.3 0,-0.78 -0.13,-1.5 -0.15,-2.25l-2.13 0c0,-7.16 0.78,-14.1 1.1,-21.14 -11.87,-129.84 -121.27,-231.92 -254.12,-231.92 -134.61,0 -244.97,104.82 -254.38,237.06 0.04,1.76 0.26,3.47 0.26,5.22l-0.55 0c-0.23,4.34 -0.61,8.61 -0.61,13.02l0 0z"/>
   <path class="fil1" d="M4582.11 2505.81c0,140.75 114.52,255.3 255.3,255.3 21.75,0 42.76,-3.03 62.94,-8.17 46.43,-145.76 73.1,-300.21 76.95,-460.45 -40.22,-26.46 -88.23,-41.98 -139.89,-41.98 -140.78,0 -255.3,114.54 -255.3,255.3l0 -0z"/>
   <path class="fil1" d="M3145.3 3480.1l0 412.08c60.14,6.65 121.22,10.27 183.2,10.27 61.81,0 122.8,-3.58 182.86,-10.23l0 -412.12 -366.06 0 0 0z"/>
   <path class="fil1" d="M4519.63 2505.81c0,-0.78 0.13,-1.5 0.13,-2.25l-0.13 0c0,-241.35 -196.31,-437.65 -437.62,-437.65 -234.18,0 -425.44,185.02 -436.59,416.48 0.57,7.78 1.18,15.51 1.18,23.42 0,175.23 -142.5,317.75 -317.72,317.75 -175.22,0 -317.8,-142.52 -317.8,-317.75 0,-6.18 0.57,-12.18 0.93,-18.24 -2.81,-238.91 -197.82,-432.43 -437.37,-432.43 -241.31,0 -437.62,196.3 -437.62,437.65l-0.69 0c0.19,4.34 0.69,8.61 0.69,13.02 0,175.23 -142.56,317.75 -317.79,317.75 -13.5,0 -26.8,-1.12 -39.87,-2.76 18.89,51.44 39.99,101.88 63.78,150.79 74.89,154.89 173.45,296.38 290.95,419.62 206.01,215.45 469.52,375.52 766.21,454.97 59.62,16.03 120.51,28.59 182.49,37.87l0 -403.93 -75.86 0c-76.34,0 -138.38,-62.08 -138.38,-138.38 0,-76.3 62.04,-138.39 138.38,-138.39 76.32,0 138.38,62.08 138.38,138.39l0 75.88 366.06 0 0 -75.88c0,-76.3 62.12,-138.39 138.35,-138.39 76.35,0 138.38,62.08 138.38,138.39 0,76.3 -62.03,138.38 -138.38,138.38l-75.84 0 0 403.93c62.04,-9.28 122.98,-21.8 182.49,-37.87 296.36,-79.12 559.93,-238.91 765.58,-454.36 117.8,-123.2 216.42,-265.02 291.57,-419.92 23.77,-49.03 44.85,-99.56 63.78,-151.1 -13.07,1.64 -26.34,2.76 -39.87,2.76 -175.23,0 -317.78,-142.52 -317.78,-317.75l-0.01 -0z"/>
   <path class="fil1" d="M3082.78 3341.73c0,-42.56 -33.27,-75.92 -75.86,-75.92 -42.56,0 -75.94,33.36 -75.94,75.92 0,42.56 33.38,75.88 75.94,75.88l75.86 0 0 -75.88z"/>
   <path class="fil1" d="M3725.66 3341.73c0,-42.56 -33.38,-75.92 -75.95,-75.92 -42.53,0 -75.84,33.36 -75.84,75.92l0 75.88 75.84 0c42.58,0 75.95,-33.32 75.95,-75.88z"/>
   <path class="fil1" d="M3351.12 1214.3c130.34,-11.34 233.06,-120.92 233.06,-254.16 0,-140.76 -114.57,-255.3 -255.3,-255.3 -140.82,0 -255.28,114.54 -255.28,255.3 0,133.24 102.62,242.82 233,254.16 7.42,-0.31 14.73,-1.12 22.28,-1.12 7.53,0 14.81,0.82 22.24,1.12z"/>
   <path class="fil1" d="M2297.44 1582.46c54.47,-97.06 158.27,-162.86 277.2,-162.86 116.54,0 218.31,63.19 273.57,156.91 45.67,-160.02 168.84,-287.51 326.44,-338.75 -97.38,-54.32 -163.56,-158.34 -163.56,-277.62 0,-175.22 142.57,-317.75 317.8,-317.75 175.22,0 317.72,142.52 317.72,317.75 0,119.29 -66.09,223.3 -163.56,277.62 159.67,51.92 283.95,182.13 328.1,345.07 55.91,-91.23 156.24,-152.46 270.88,-152.46 117.62,0 220.34,64.41 275.2,159.64 42.72,-147.72 151.65,-267.43 292.61,-324.72 -96.03,-128.38 -209.83,-242.71 -338.41,-338.33 -253.82,-188.7 -563.92,-306.16 -900.15,-322.6 0,0 0,0 -0.32,0 -27.39,-1.52 -54.76,-2.13 -82.43,-2.13 -27.98,0 -55.39,0.61 -82.76,2.13l-0.34 0c-336.56,16.76 -646.91,134.21 -901.03,323.2 -128.24,95.46 -241.75,209.58 -337.62,337.71 138.66,56.31 246.51,172.84 290.7,317.19l-0 0z"/>
   <path class="fil1" d="M4399.75 1728.56l-0.99 0c0.41,6.52 0.99,12.96 0.99,19.6 0,120.26 -67.12,225.05 -165.85,279.03 154.18,49.29 276.15,171.44 324.95,325.88 54.14,-98.28 158.68,-165.05 278.56,-165.05 50.43,0 98.09,12.14 140.5,33.19 -0.52,-25.6 -1.39,-51.05 -3.13,-76.43 -3.97,-66.96 -12.45,-132.69 -24.63,-197.2 -25.62,-138.15 -68.47,-270.2 -126.62,-393.76 -38.71,-82.76 -84.63,-161.34 -135.99,-235.9 -167.58,61.4 -287.78,222.02 -287.78,410.65l-0.01 -0z"/>
   <path class="fil1" d="M4337.33 1748.16c0,-140.77 -114.57,-255.3 -255.32,-255.3 -140.78,0 -255.3,114.54 -255.3,255.3 0,140.74 114.52,255.28 255.3,255.28 140.74,0 255.32,-114.53 255.32,-255.28z"/>
   <path class="fil1" d="M3082.78 4451.18l62.52 0 0 -559.06c-20.99,-2.32 -41.8,-4.86 -62.52,-7.95l0 567 0 0z"/>
   <path class="fil1" d="M3511.36 4451.18l62.5 0 0 -567c-20.72,3.09 -41.56,5.62 -62.5,7.95l0 559.06 0 -0z"/>
   <path class="fil1" d="M1010.51 5714.44l0 0c-19.55,140.65 -73.5,250.91 -161.54,330.75 -88.04,79.85 -199.36,119.78 -333.93,119.78 -157.04,0 -282.1,-54.21 -375.17,-162.61 -93.32,-108.4 -139.87,-254.35 -139.87,-437.83 0,-183.76 48.39,-329.96 145.17,-438.63 97.02,-108.94 227.11,-163.39 390.23,-163.39 128.49,0 234.26,33.05 316.73,99.14 82.76,66.1 132.47,157.33 148.87,273.66l-149.12 0c-14.54,-75.34 -49.44,-133.78 -104.97,-174.77 -55.53,-40.98 -126.91,-61.61 -214.17,-61.61 -114.21,0 -204.91,42.03 -272.57,126.11 -67.68,84.08 -101.54,197.24 -101.54,339.49 0,150.96 31.47,266.24 94.12,345.29 62.65,79.07 153.61,118.71 272.86,118.71 88.04,0 161.27,-27.22 219.71,-81.69 58.16,-54.72 97.02,-132.19 116.06,-232.39l149.11 0 0 -0zm386.81 441c-81.16,0 -145.41,-21.67 -192.98,-65.04 -47.6,-43.36 -71.39,-102.05 -71.39,-176.08 0,-74.3 22.45,-133.52 67.15,-177.4 44.68,-43.9 109.98,-71.39 195.64,-82.23l190.09 -24.08c15.35,-1.31 30.16,-3.97 44.16,-7.66 17.98,-4.49 31.99,-14.01 41.76,-28.02 9.81,-14.01 14.81,-31.73 14.81,-52.87l0 -7.15c0,-44.68 -16.93,-79.57 -50.5,-104.7 -33.58,-25.1 -80.65,-37.79 -140.65,-37.79 -57.39,0 -102.07,13.2 -134.32,39.91 -32.25,26.44 -51.83,66.1 -58.43,118.73l-128.51 0c6.61,-90.69 38.62,-158.91 95.97,-204.39 57.39,-45.74 139.34,-68.47 246.16,-68.47 101.01,0 177.95,21.94 230.57,65.55 52.87,43.63 79.31,107.35 79.31,191.16l0 456.09c0,13.74 4.23,25.13 12.96,33.56 8.46,8.73 20.09,12.96 34.63,12.96 4.23,0 10.3,-0.54 18.24,-1.58 8.2,-1.06 16.93,-2.64 26.17,-4.76l0 100.73c-13.48,5.28 -27.76,9.51 -42.83,12.42 -15.08,3.17 -27.75,4.74 -38.06,4.74 -52.9,0 -91.23,-14.52 -115.02,-43.34 -15.61,-19.04 -26.7,-46.01 -33.32,-81.18 -10.3,12.96 -22.2,25.39 -35.7,37.29 -69.8,62.4 -155.2,93.58 -255.94,93.58l-0 0.01zm289.25 -350.83l0 -90.16c-25.91,12.44 -54.46,20.87 -85.93,25.64l-127.95 18.51c-67.17,9.26 -116.35,25.12 -147.28,47.06 -30.92,22.2 -46.53,52.09 -46.53,89.89 0,46.8 12.69,82.76 38.06,107.89 25.12,25.1 61.09,37.8 107.62,37.8 73.5,0 135.37,-20.09 186.13,-60.01 34.63,-28.04 57.64,-59.51 69,-94.92 1.87,-6.61 3.45,-17.19 4.5,-31.74 1.6,-15.06 2.39,-31.72 2.39,-49.96l-0 0zm547.56 -383.64l0 712.27 -139.6 0 0 -712.27 -114.21 0 0 -115.81 114.21 0 0 -141.18c0,-61.61 17.97,-107.86 54.19,-139.06 36.23,-30.94 90.44,-46.53 162.87,-46.53l60.53 2.38 0 125.33 -54.46 -2.38c-26.7,0 -47.32,8.71 -61.87,26.17 -14.54,17.19 -21.67,42.04 -21.67,74.03l0 101.25 138 0 0 115.81 -138 0 0 0zm605.45 734.48c-117.12,0 -209.38,-37.27 -276.53,-111.56 -67.17,-74.57 -100.74,-177.42 -100.74,-308.81 0,-139.6 35.42,-250.65 106.55,-333.14 70.85,-82.48 166.29,-123.73 286.07,-123.73 108.4,0 195.91,40.45 262.55,121.09 66.61,80.63 99.94,186.64 99.94,317.79l-1.58 49.71 -604.94 0c5.55,82.76 24.59,145.68 56.57,189.05 39.13,52.61 101,79.05 185.61,79.05 53.14,0 99.67,-14.79 139.34,-44.68 39.66,-29.87 63.98,-67.68 72.7,-113.94l138.02 0c-20.62,90.67 -62.14,159.96 -124.01,207.53 -61.85,47.86 -141.7,71.65 -239.54,71.65l0 -0.01zm232.94 -501.28l0 0c-3.96,-76.93 -23.27,-136.69 -57.37,-179.52 -37.55,-47.33 -92.81,-71.12 -165.77,-71.12 -73.25,0 -131.94,27.22 -175.84,81.94 -34.63,42.83 -55.51,99.16 -62.65,168.69l461.63 0 0 0zm-285.02 -461.63l141.19 -223.69 171.32 0 -204.64 223.69 -107.87 0zm1551.19 972.45c-165.53,0 -299.3,-55.26 -401.62,-165.5 -102.32,-110.53 -153.35,-255.41 -153.35,-434.93 0,-180.05 51.03,-325.19 153.35,-436 102.32,-110.76 236.09,-166.02 401.62,-166.02 166.31,0 300.34,55.26 402.39,166.02 102.05,110.8 153.08,255.95 153.08,436 0,179.52 -51.03,324.4 -153.08,434.93 -102.05,110.25 -236.09,165.5 -402.39,165.5zm0 -136.44c118.71,0 214.68,-42.56 287.65,-127.96 72.72,-85.41 109.21,-197.51 109.21,-336.05 0,-139.06 -36.48,-251.43 -109.21,-337.11 -72.97,-85.66 -168.94,-128.49 -287.65,-128.49 -118.47,0 -214.17,42.83 -287.13,128.49 -72.71,85.68 -109.21,198.05 -109.21,337.11 0,138.53 36.49,250.64 109.21,336.05 72.97,85.4 168.67,127.96 287.13,127.96zm720.2 104.7l0 -829.66 132.72 0 0 121.9 30.94 -41.25c60.29,-70.6 135.9,-106.02 226.6,-106.02 91.47,0 161.8,24.86 211.25,74.55 49.44,49.72 74.28,120.3 74.28,211.79l0 568.71 -139.61 0 0 -521.64c0,-72.98 -14.01,-125.6 -42.02,-157.85 -28.29,-32.52 -73.77,-48.65 -136.44,-48.65 -67.15,0 -120.29,25.37 -159.42,76.4 -39.13,51.02 -58.69,120.05 -58.69,207.02l0 444.71 -139.61 0 0 -0zm1219.92 22.2c-117.12,0 -209.4,-37.27 -276.55,-111.56 -67.15,-74.57 -100.73,-177.42 -100.73,-308.81 0,-139.6 35.43,-250.65 106.55,-333.14 70.85,-82.48 166.31,-123.73 286.07,-123.73 108.4,0 195.93,40.45 262.54,121.09 66.64,80.63 99.94,186.64 99.94,317.79l-1.58 49.71 -604.94 0c5.57,82.76 24.59,145.68 56.59,189.05 39.13,52.61 101,79.05 185.6,79.05 53.14,0 99.67,-14.79 139.34,-44.68 39.66,-29.87 63.98,-67.68 72.71,-113.94l138 0c-20.62,90.67 -62.12,159.96 -123.99,207.53 -61.87,47.86 -141.72,71.65 -239.54,71.65l-0 -0.01zm232.93 -501.28l0 0c-3.97,-76.93 -23.28,-136.69 -57.38,-179.52 -37.55,-47.33 -92.81,-71.12 -165.77,-71.12 -73.23,0 -131.92,27.22 -175.82,81.94 -34.63,42.83 -55.52,99.16 -62.67,168.69l461.63 0 0 0z"/>
  </g>
 </g>
</svg>
