<?xml version="1.0" encoding="UTF-8"?>
<!DOCTYPE svg PUBLIC "-//W3C//DTD SVG 1.1//EN" "http://www.w3.org/Graphics/SVG/1.1/DTD/svg11.dtd">
<!-- Creator: CorelDRAW -->
<svg xmlns="http://www.w3.org/2000/svg" xml:space="preserve" width="18.6022mm" height="10.6238mm" version="1.1" style="shape-rendering:geometricPrecision; text-rendering:geometricPrecision; image-rendering:optimizeQuality; fill-rule:evenodd; clip-rule:evenodd"
viewBox="0 0 13258.31 7571.88"
 xmlns:xlink="http://www.w3.org/1999/xlink"
 xmlns:xodm="http://www.corel.com/coreldraw/odm/2003">
 <defs>
  <style type="text/css">
   <![CDATA[
    .fil3 {fill:#134A21;fill-rule:nonzero}
    .fil1 {fill:#2D8C45;fill-rule:nonzero}
    .fil0 {fill:#57A96C;fill-rule:nonzero}
    .fil2 {fill:#8AD6A3;fill-rule:nonzero}
   ]]>
  </style>
 </defs>
 <g id="Layer_x0020_1">
  <metadata id="CorelCorpID_0Corel-Layer"/>
  <polygon class="fil0" points="4457.69,941.58 8800.62,941.58 8800.62,4937.21 4457.69,4937.21 "/>
  <polygon class="fil1" points="1606.85,941.58 -0,4937.21 4342.94,4937.21 4342.94,941.58 "/>
  <polygon class="fil1" points="11651.46,941.58 8915.37,941.58 8915.37,4937.21 13258.31,4937.21 "/>
  <path class="fil1" d="M4457.69 4937.21l0 463.2c0,1199.52 971.95,2171.47 2171.47,2171.47 1199.16,0 2171.47,-971.95 2171.47,-2171.47l0 -463.2 -4342.94 0z"/>
  <path class="fil2" d="M8915.37 4937.21l0 463.2c0,1199.52 972.3,2171.47 2171.47,2171.47 1199.16,0 2171.47,-971.95 2171.47,-2171.47l0 -463.2 -4342.94 0z"/>
  <path class="fil2" d="M-0 4937.21l0 463.2c0,1199.52 972.3,2171.47 2171.47,2171.47 1199.16,0 2171.47,-971.95 2171.47,-2171.47l0 -463.2 -4342.94 0z"/>
  <path class="fil3" d="M1560.52 803.67l10137.27 0 0 -728.05c0,-41.41 -34.92,-75.62 -78.26,-75.62l-9980.76 0c-43.33,0 -78.26,34.21 -78.26,75.62l0 728.05z"/>
 </g>
</svg>
